<svg width="229" height="161" viewBox="0 0 229 161" fill="none" xmlns="http://www.w3.org/2000/svg">
<rect x="0.621094" y="0.0703125" width="228.071" height="160.913" rx="13.2986" fill="url(#paint0_linear)"/>
<path d="M57.4105 116.655C56.2371 121.124 52.1254 123.916 52.1254 123.916C52.1254 123.916 49.9162 119.464 51.0896 114.995C52.263 110.527 56.3747 107.734 56.3747 107.734C56.3747 107.734 58.5839 112.187 57.4105 116.655Z" fill="#437922"/>
<path d="M55.6307 115.711C52.3443 118.958 51.9766 123.914 51.9766 123.914C51.9766 123.914 56.9373 123.607 60.2238 120.36C63.5103 117.113 63.878 112.156 63.878 112.156C63.878 112.156 58.9172 112.464 55.6307 115.711Z" fill="#74D539"/>
<path d="M59.7524 122.609H46.8969C45.4868 122.609 44.3438 123.752 44.3438 125.163V127.7C44.3438 129.11 45.4868 130.253 46.8969 130.253H59.7524C61.1624 130.253 62.3055 129.11 62.3055 127.7V125.163C62.3055 123.752 61.1624 122.609 59.7524 122.609Z" fill="#001835"/>
<g opacity="0.7">
<path opacity="0.7" d="M183.353 117.727V114.973H169.582V127.711C169.582 128.063 169.651 128.412 169.786 128.738C169.921 129.064 170.119 129.36 170.369 129.609C170.618 129.859 170.914 130.057 171.24 130.191C171.566 130.326 171.915 130.396 172.267 130.396H180.667C181.38 130.396 182.063 130.113 182.566 129.609C183.07 129.106 183.353 128.423 183.353 127.711V124.888C184.301 124.886 185.21 124.508 185.88 123.836C186.55 123.165 186.926 122.256 186.926 121.307C186.926 120.359 186.55 119.449 185.88 118.778C185.21 118.107 184.301 117.729 183.353 117.727ZM183.353 123.51V119.104C183.937 119.104 184.498 119.336 184.911 119.749C185.324 120.162 185.556 120.723 185.556 121.307C185.556 121.892 185.324 122.452 184.911 122.865C184.498 123.278 183.937 123.51 183.353 123.51Z" fill="url(#paint1_linear)"/>
</g>
<path d="M182.91 118.156C182.263 118.156 181.631 118.348 181.093 118.707C180.556 119.066 180.137 119.577 179.889 120.174C179.642 120.772 179.577 121.429 179.703 122.063C179.83 122.697 180.141 123.28 180.598 123.737C181.055 124.194 181.638 124.505 182.272 124.632C182.906 124.758 183.563 124.693 184.161 124.446C184.758 124.198 185.269 123.779 185.628 123.241C185.987 122.704 186.179 122.072 186.179 121.425C186.179 120.558 185.834 119.727 185.221 119.114C184.608 118.501 183.777 118.156 182.91 118.156ZM182.91 123.437C182.512 123.437 182.123 123.319 181.792 123.098C181.461 122.877 181.203 122.563 181.051 122.195C180.899 121.828 180.859 121.423 180.937 121.033C181.014 120.643 181.206 120.284 181.487 120.003C181.769 119.721 182.127 119.53 182.517 119.452C182.907 119.375 183.312 119.414 183.68 119.567C184.047 119.719 184.361 119.977 184.582 120.308C184.803 120.638 184.921 121.027 184.921 121.425C184.921 121.959 184.709 122.471 184.332 122.848C183.955 123.225 183.443 123.437 182.91 123.437Z" fill="white"/>
<path d="M170.336 115.645H182.909V128.089C182.909 128.523 182.737 128.94 182.429 129.247C182.122 129.554 181.706 129.727 181.271 129.727H171.974C171.54 129.727 171.123 129.554 170.816 129.247C170.509 128.94 170.336 128.523 170.336 128.089V115.645Z" fill="white"/>
<path d="M196.111 129.725H32.9102V135.257H196.111V129.725Z" fill="#001835"/>
<g opacity="0.7">
<path opacity="0.7" d="M140.25 92.7087C138.501 86.3597 128.585 81.7235 121.124 80.6955C121.125 80.6486 121.127 80.6022 121.127 80.5551V75.1203C121.135 75.1174 121.143 75.1149 121.151 75.112V74.906C123.799 73.9212 126.189 72.3473 128.139 70.3032C130.089 68.2592 131.549 65.7985 132.409 63.1072C132.87 62.2734 133.271 61.408 133.61 60.5174C134.407 60.2274 135.008 58.9139 135.008 57.3357C135.011 56.7959 134.935 56.2585 134.783 55.7405C134.881 54.9367 134.931 54.1278 134.933 53.3181C134.936 50.4875 134.344 47.6879 133.195 45.1009C132.046 42.514 130.366 40.1976 128.264 38.3019C128.326 37.9768 128.347 37.645 128.327 37.3146C128.158 34.706 125.372 32.9339 122.76 32.8153C123.45 32.0328 123.904 31.0706 124.068 30.0405C124.233 29.0105 124.101 27.9548 123.69 26.9964C122.025 29.4222 118.606 29.6801 115.664 29.6991C116.934 29.2075 117.505 27.4484 116.767 26.3047C113.692 30.4263 107.697 31.1896 104.04 34.8044C103.243 35.595 102.575 36.5058 102.061 37.5035C99.6838 39.3971 97.7648 41.8025 96.4466 44.5407C95.1283 47.2788 94.4449 50.2791 94.4471 53.3181C94.4488 54.1205 94.4977 54.922 94.5937 55.7186C94.4369 56.2432 94.3587 56.7882 94.3618 57.3357C94.3618 58.9212 94.969 60.2387 95.771 60.5206C96.111 61.4142 96.5143 62.2826 96.9777 63.1189C97.8341 65.7947 99.2845 68.2421 101.22 70.2781C103.156 72.3141 105.527 73.8861 108.157 74.8764V80.5551C108.157 80.5988 108.159 80.6419 108.16 80.6855C100.67 81.6958 90.6747 86.3685 88.9411 92.7686C87.444 98.2955 85.8459 104.365 85.0508 107.929C91.8662 112.718 106.167 115.53 115.13 115.53C123.645 115.53 137.563 112.992 144.178 108.631C143.461 104.715 141.813 98.3792 140.25 92.7087Z" fill="url(#paint2_linear)"/>
</g>
<path d="M115.117 113.951C123.332 113.951 136.758 111.503 143.139 107.297C142.448 103.519 140.858 97.407 139.351 91.9368C137.431 84.9703 125.318 80.1406 118.092 80.1406H111.129C103.88 80.1406 91.7495 84.9983 89.8544 91.9946C88.4102 97.3262 86.8686 103.181 86.1016 106.619C92.6761 111.239 106.472 113.951 115.117 113.951Z" fill="#6C63FF"/>
<path d="M114.692 73.4671C125.476 73.4671 134.219 64.7243 134.219 53.9396C134.219 43.1549 125.476 34.4121 114.692 34.4121C103.907 34.4121 95.1641 43.1549 95.1641 53.9396C95.1641 64.7243 103.907 73.4671 114.692 73.4671Z" fill="black"/>
<path opacity="0.1" d="M108.387 70.2051H120.899V80.2149C120.899 81.8742 120.24 83.4655 119.067 84.6387C117.893 85.812 116.302 86.4711 114.643 86.4711H114.643C112.984 86.4711 111.392 85.812 110.219 84.6387C109.046 83.4655 108.387 81.8742 108.387 80.2149V70.2051H108.387Z" fill="black"/>
<path d="M110.181 69.7402H119.104C119.58 69.7402 120.037 69.9293 120.373 70.2659C120.71 70.6025 120.899 71.059 120.899 71.535V79.7501C120.899 81.4093 120.24 83.0006 119.067 84.1739C117.893 85.3471 116.302 86.0063 114.643 86.0063H114.643C112.984 86.0063 111.392 85.3471 110.219 84.1739C109.046 83.0006 108.387 81.4093 108.387 79.7501V71.535C108.387 71.059 108.576 70.6025 108.912 70.2659C109.249 69.9293 109.705 69.7402 110.181 69.7402Z" fill="#FDA57D"/>
<path opacity="0.1" d="M108.414 74.9282C112.447 76.435 116.886 76.4472 120.926 74.9628V73.4258H108.414V74.9282Z" fill="black"/>
<path d="M114.696 75.7652C124.601 75.7652 132.63 67.7357 132.63 57.8308C132.63 47.926 124.601 39.8965 114.696 39.8965C104.791 39.8965 96.7617 47.926 96.7617 57.8308C96.7617 67.7357 104.791 75.7652 114.696 75.7652Z" fill="#FDA57D"/>
<path opacity="0.1" d="M101.918 41.5182C101.918 41.5182 109.476 56.8603 130.797 47.9484L125.834 40.1645L117.034 37.0059L101.918 41.5182Z" fill="black"/>
<path d="M101.918 41.2936C101.918 41.2936 109.476 56.6357 130.797 47.7238L125.834 39.9399L117.034 36.7812L101.918 41.2936Z" fill="black"/>
<path d="M101.847 40.2591C102.356 38.6813 103.237 37.2489 104.415 36.0822C107.943 32.5951 113.726 31.8588 116.692 27.8828C117.404 28.9862 116.853 30.6831 115.629 31.1573C118.467 31.1389 121.764 30.8902 123.371 28.5501C123.768 29.4747 123.894 30.493 123.736 31.4866C123.577 32.4803 123.14 33.4085 122.474 34.1634C124.993 34.2777 127.681 35.9873 127.844 38.5037C127.952 40.1801 126.901 41.7673 125.523 42.7287C124.146 43.6901 122.479 44.1315 120.839 44.4932C116.05 45.549 98.7221 49.9744 101.847 40.2591Z" fill="black"/>
<path d="M132.626 57.9902H132.151L122.9 66.2253C113.988 62.0514 107.445 66.2253 107.445 66.2253L97.7439 58.3287L96.7656 58.4516C96.8982 63.1585 98.8768 67.6245 102.274 70.8852C105.671 74.1458 110.215 75.9395 114.923 75.8789C119.632 75.8183 124.127 73.9084 127.44 70.5614C130.752 67.2144 132.615 62.6991 132.626 57.9902ZM114.665 69.384C111.176 69.384 108.348 68.6769 108.348 67.8047C108.348 66.9324 111.176 66.2253 114.665 66.2253C118.154 66.2253 120.983 66.9324 120.983 67.8047C120.983 68.6769 118.154 69.384 114.665 69.384Z" fill="black"/>
<path d="M96.7542 60.9437C97.6756 60.9437 98.4226 59.5432 98.4226 57.8156C98.4226 56.088 97.6756 54.6875 96.7542 54.6875C95.8329 54.6875 95.0859 56.088 95.0859 57.8156C95.0859 59.5432 95.8329 60.9437 96.7542 60.9437Z" fill="#FDA57D"/>
<path d="M132.625 60.9437C133.547 60.9437 134.294 59.5432 134.294 57.8156C134.294 56.088 133.547 54.6875 132.625 54.6875C131.704 54.6875 130.957 56.088 130.957 57.8156C130.957 59.5432 131.704 60.9437 132.625 60.9437Z" fill="#FDA57D"/>
<g opacity="0.7">
<path opacity="0.7" d="M146.781 89.7598H82.2485C80.9031 89.7598 79.8125 90.8504 79.8125 92.1957V127.29C79.8125 128.635 80.9031 129.726 82.2485 129.726H146.781C148.126 129.726 149.217 128.635 149.217 127.29V92.1957C149.217 90.8504 148.126 89.7598 146.781 89.7598Z" fill="url(#paint3_linear)"/>
</g>
<path d="M143.448 90.4941H85.5747C83.0848 90.4941 81.0664 92.5126 81.0664 95.0024V125.214C81.0664 127.704 83.0848 129.723 85.5747 129.723H143.448C145.938 129.723 147.956 127.704 147.956 125.214V95.0024C147.956 92.5126 145.938 90.4941 143.448 90.4941Z" fill="#BBBBBB"/>
<path d="M114.558 115.336C117.418 115.336 119.737 113.018 119.737 110.157C119.737 107.297 117.418 104.979 114.558 104.979C111.698 104.979 109.379 107.297 109.379 110.157C109.379 113.018 111.698 115.336 114.558 115.336Z" fill="white"/>
<path opacity="0.1" d="M180.647 115.645V127.275C180.647 127.925 180.389 128.549 179.929 129.008C179.469 129.468 178.846 129.727 178.195 129.727H179.453C180.103 129.727 180.727 129.468 181.186 129.008C181.646 128.549 181.904 127.925 181.904 127.275V115.645H180.647Z" fill="black"/>
<path opacity="0.5" d="M172.817 106.269C172.605 106.305 172.366 106.363 172.262 106.551C172.097 106.85 172.396 107.187 172.669 107.393C173.173 107.772 173.704 108.145 174.046 108.675C174.389 109.204 174.496 109.944 174.122 110.451C173.633 111.114 172.467 111.257 172.354 112.073C172.281 112.597 172.734 113.044 173.193 113.306C174.326 113.955 175.786 114.128 176.606 115.143C176.945 114.446 177.704 114.042 178.461 113.87C179.218 113.698 180.004 113.711 180.771 113.594C181.018 113.556 181.297 113.48 181.408 113.256C181.623 112.821 181.011 112.299 181.222 111.862C181.383 111.529 181.855 111.555 182.199 111.422C182.76 111.205 182.991 110.483 182.832 109.903C182.673 109.324 182.223 108.87 181.75 108.499C180.476 107.498 178.944 106.909 177.395 106.485C176.674 106.289 175.828 105.98 175.079 105.95C174.357 105.921 173.533 106.147 172.817 106.269Z" fill="#EEEEEE"/>
<defs>
<linearGradient id="paint0_linear" x1="0.621093" y1="80.6503" x2="228.692" y2="80.6503" gradientUnits="userSpaceOnUse">
<stop offset="0.510417" stop-color="#2992E0"/>
<stop offset="0.510517" stop-color="#D12626"/>
</linearGradient>
<linearGradient id="paint1_linear" x1="178.258" y1="130.396" x2="178.258" y2="114.973" gradientUnits="userSpaceOnUse">
<stop stop-color="#808080" stop-opacity="0.25"/>
<stop offset="0.53514" stop-color="#808080" stop-opacity="0.12"/>
<stop offset="1" stop-color="#808080" stop-opacity="0.1"/>
</linearGradient>
<linearGradient id="paint2_linear" x1="35599.7" y1="58032" x2="35599.7" y2="10644.1" gradientUnits="userSpaceOnUse">
<stop stop-color="#808080" stop-opacity="0.25"/>
<stop offset="0.53514" stop-color="#808080" stop-opacity="0.12"/>
<stop offset="1" stop-color="#808080" stop-opacity="0.1"/>
</linearGradient>
<linearGradient id="paint3_linear" x1="33790.9" y1="24692.7" x2="33790.9" y2="15185.1" gradientUnits="userSpaceOnUse">
<stop stop-color="#808080" stop-opacity="0.25"/>
<stop offset="0.53514" stop-color="#808080" stop-opacity="0.12"/>
<stop offset="1" stop-color="#808080" stop-opacity="0.1"/>
</linearGradient>
</defs>
</svg>
